<svg xmlns="http://www.w3.org/2000/svg" viewBox="0 0 427.44 445.55"><defs><style>.cls-1{fill:#f8cbc6;}.cls-2{fill:#a3cd8b;}.cls-3{fill:#94c35b;}.cls-4{fill:#7cb748;}.cls-5{fill:#ef7b7b;}.cls-6{fill:#e28f8a;}.cls-7{fill:#fff;}</style></defs><title>Fichier 3</title><g id="Calque_2" data-name="Calque 2"><g id="Calque_1-2" data-name="Calque 1"><polygon class="cls-1" points="255.62 0 171.82 0 129.91 72.58 171.82 145.16 255.62 145.16 297.53 72.58 255.62 0"/><polygon class="cls-2" points="385.54 74.89 301.73 74.89 259.83 147.47 301.73 220.05 385.54 220.05 427.44 147.47 385.54 74.89"/><polygon class="cls-3" points="125.71 74.89 41.9 74.89 0 147.47 41.9 220.05 125.71 220.05 167.61 147.47 125.71 74.89"/><polygon class="cls-4" points="255.62 300.4 171.82 300.4 129.91 372.97 171.82 445.55 255.62 445.55 297.53 372.97 255.62 300.4"/><polygon class="cls-5" points="385.54 225.09 301.73 225.09 259.83 297.67 301.73 370.25 385.54 370.25 427.44 297.67 385.54 225.09"/><polygon class="cls-6" points="125.71 225.09 41.9 225.09 0 297.67 41.9 370.25 125.71 370.25 167.61 297.67 125.71 225.09"/><path class="cls-6" d="M165.69,220c0-9,5.08-14.14,12.49-14.14s12.5,5.19,12.5,14.14-5.08,14.38-12.5,14.38S165.69,229,165.69,220Zm18.62,0c0-5.52-2.37-8.77-6.13-8.77s-6.12,3.25-6.12,8.77c0,5.86,2.37,9.3,6.12,9.3S184.31,225.89,184.31,220Zm-9.16,13.66,6.32-.62c1.05,2.58,3.87,3.53,6.49,3.53a9.53,9.53,0,0,0,3.06-.48l1.1,4.54a11.32,11.32,0,0,1-4.87.91A12.55,12.55,0,0,1,175.15,233.69Z"/><path class="cls-6" d="M194.56,220.31c0-9.13,6-14.42,13-14.42a11.59,11.59,0,0,1,8.27,3.57l-3.28,4a6.88,6.88,0,0,0-4.85-2.19c-3.78,0-6.75,3.32-6.75,8.84s2.63,8.94,6.65,8.94a7.25,7.25,0,0,0,5.38-2.57l3.28,3.9a11.34,11.34,0,0,1-8.89,4C200.39,234.41,194.56,229.57,194.56,220.31Z"/><path class="cls-6" d="M216.54,206.39h6.58l3.32,12.82c.82,3,1.37,5.79,2.2,8.82h.17c.84-3,1.42-5.81,2.21-8.82l3.24-12.82h6.36l-8.3,27.51h-7.47Z"/><path class="cls-6" d="M248.94,211.61h-7.57v-5.22h21.36v5.22h-7.57V233.9h-6.22Z"/><path class="cls-7" d="M169,48.27h2.13L173,53.46c.23.67.45,1.39.68,2.08h.07c.23-.69.43-1.41.66-2.08l1.84-5.19h2.13V58.89h-1.73V54c0-1,.15-2.39.25-3.38h-.07l-.86,2.47-1.74,4.77h-1.12l-1.75-4.77-.85-2.47h-.06c.09,1,.24,2.4.24,3.38v4.86H169Z"/><path class="cls-7" d="M180.47,56.74c0-1.7,1.42-2.59,4.69-3,0-.85-.37-1.57-1.45-1.57a4.4,4.4,0,0,0-2.24.79l-.69-1.25a6.25,6.25,0,0,1,3.27-1c2,0,3,1.22,3,3.45v4.72H185.5l-.15-.89h0a3.84,3.84,0,0,1-2.47,1.08A2.24,2.24,0,0,1,180.47,56.74Zm4.69,0V55c-2.16.27-2.89.83-2.89,1.64s.49,1,1.15,1A2.54,2.54,0,0,0,185.16,56.75Z"/><path class="cls-7" d="M189.28,50.91h1.53L191,52H191a3.72,3.72,0,0,1,2.62-1.27c1.71,0,2.46,1.15,2.46,3.17v5h-1.87V54.13c0-1.32-.38-1.81-1.24-1.81a2.51,2.51,0,0,0-1.82,1v5.58h-1.87Z"/><path class="cls-7" d="M197.94,56.74c0-1.7,1.42-2.59,4.69-3,0-.85-.37-1.57-1.45-1.57a4.4,4.4,0,0,0-2.24.79l-.69-1.25a6.25,6.25,0,0,1,3.28-1c2,0,3,1.22,3,3.45v4.72H203l-.14-.89h-.06a3.84,3.84,0,0,1-2.47,1.08A2.24,2.24,0,0,1,197.94,56.74Zm4.69,0V55c-2.16.27-2.88.83-2.88,1.64s.48,1,1.15,1A2.52,2.52,0,0,0,202.63,56.75Z"/><path class="cls-7" d="M206.2,60.33a2,2,0,0,1,1.15-1.7v-.06a1.52,1.52,0,0,1-.72-1.33,1.93,1.93,0,0,1,.89-1.49v-.07a2.64,2.64,0,0,1-1.06-2.1,2.91,2.91,0,0,1,3.15-2.86,3.53,3.53,0,0,1,1.19.19h2.85V52.3h-1.46a2.09,2.09,0,0,1,.46,1.34c0,1.77-1.35,2.72-3,2.72a3,3,0,0,1-1.07-.21.9.9,0,0,0-.39.76c0,.45.32.72,1.29.72h1.42c1.9,0,2.92.59,2.92,2,0,1.57-1.65,2.81-4.26,2.81C207.62,62.41,206.2,61.73,206.2,60.33Zm5.77-.42c0-.62-.49-.8-1.4-.8h-1.1a4.79,4.79,0,0,1-1.08-.11,1.3,1.3,0,0,0-.61,1c0,.73.78,1.15,2,1.15S212,60.59,212,59.91Zm-1-6.33a1.4,1.4,0,1,0-2.77,0,1.4,1.4,0,1,0,2.77,0Z"/><path class="cls-7" d="M214.41,54.91a3.88,3.88,0,0,1,3.67-4.19c2.16,0,3.3,1.56,3.3,3.78a5,5,0,0,1-.08.91h-5.07a2.27,2.27,0,0,0,2.35,2.22,3.32,3.32,0,0,0,1.85-.58l.64,1.17a5,5,0,0,1-2.73.86A3.85,3.85,0,0,1,214.41,54.91Zm5.35-.77c0-1.23-.55-2-1.64-2a2,2,0,0,0-1.91,2Z"/><path class="cls-7" d="M223.17,50.91h1.53l.14,1.09h.06a3.38,3.38,0,0,1,2.44-1.28,2.16,2.16,0,0,1,2.21,1.43,3.57,3.57,0,0,1,2.56-1.43c1.68,0,2.46,1.15,2.46,3.17v5H232.7V54.13c0-1.32-.39-1.81-1.23-1.81a2.47,2.47,0,0,0-1.66,1v5.58h-1.88V54.13c0-1.32-.38-1.81-1.22-1.81a2.51,2.51,0,0,0-1.67,1v5.58h-1.87Z"/><path class="cls-7" d="M236.33,54.91A3.88,3.88,0,0,1,240,50.72c2.15,0,3.29,1.56,3.29,3.78a5,5,0,0,1-.08.91h-5.06a2.26,2.26,0,0,0,2.35,2.22,3.37,3.37,0,0,0,1.85-.58l.63,1.17a5,5,0,0,1-2.73.86A3.85,3.85,0,0,1,236.33,54.91Zm5.35-.77c0-1.23-.54-2-1.63-2a2,2,0,0,0-1.91,2Z"/><path class="cls-7" d="M245.09,50.91h1.53l.15,1.08h0a3.7,3.7,0,0,1,2.62-1.27c1.7,0,2.45,1.15,2.45,3.17v5H250V54.13c0-1.32-.38-1.81-1.24-1.81a2.55,2.55,0,0,0-1.82,1v5.58h-1.87Z"/><path class="cls-7" d="M254.46,56.2V52.4h-1.13V51l1.23-.09.22-2.17h1.55v2.17h2V52.4h-2v3.79c0,.94.37,1.4,1.13,1.4a2.57,2.57,0,0,0,.84-.18l.31,1.38a5.23,5.23,0,0,1-1.63.29C255.15,59.08,254.46,57.92,254.46,56.2Z"/><path class="cls-7" d="M168.8,70.4h1.53l.15.85h.05a3.83,3.83,0,0,1,2.4-1c2,0,3.14,1.6,3.14,4.06,0,2.73-1.63,4.31-3.41,4.31a3.19,3.19,0,0,1-2-.88l.06,1.33v2.51H168.8Zm5.34,3.88c0-1.59-.52-2.53-1.73-2.53a2.51,2.51,0,0,0-1.74.9v3.71a2.47,2.47,0,0,0,1.6.66C173.33,77,174.14,76.09,174.14,74.28Z"/><path class="cls-7" d="M177.34,76.23c0-1.71,1.41-2.6,4.68-3,0-.86-.37-1.57-1.44-1.57a4.37,4.37,0,0,0-2.24.79l-.69-1.25a6.2,6.2,0,0,1,3.27-1c2,0,3,1.23,3,3.45v4.72h-1.53l-.14-.88h-.05a3.89,3.89,0,0,1-2.48,1.08A2.23,2.23,0,0,1,177.34,76.23Zm4.68,0v-1.8c-2.16.28-2.88.84-2.88,1.65s.48,1,1.15,1A2.52,2.52,0,0,0,182,76.24Z"/><path class="cls-7" d="M186.14,70.4h1.54l.14,1.42h.05a2.72,2.72,0,0,1,2.27-1.62,2,2,0,0,1,.9.17L190.71,72a2.55,2.55,0,0,0-.81-.13c-.64,0-1.41.43-1.89,1.65v4.86h-1.87Z"/><path class="cls-7" d="M192.48,75.69v-3.8h-1.14V70.48l1.24-.08.22-2.18h1.55V70.4h2v1.49h-2v3.79c0,.94.36,1.4,1.13,1.4a2.51,2.51,0,0,0,.83-.18l.32,1.38a5.29,5.29,0,0,1-1.63.29C193.16,78.57,192.48,77.41,192.48,75.69Z"/><path class="cls-7" d="M197.85,67.94a1.16,1.16,0,0,1,2.31,0,1.16,1.16,0,0,1-2.31,0Zm.21,2.46h1.87v8h-1.87Z"/><path class="cls-7" d="M201.79,74.39a4,4,0,0,1,4-4.19,3.4,3.4,0,0,1,2.33.9l-.91,1.21a1.93,1.93,0,0,0-1.32-.58c-1.29,0-2.18,1.06-2.18,2.66s.88,2.65,2.12,2.65a2.61,2.61,0,0,0,1.65-.69l.76,1.24a4,4,0,0,1-2.6,1C203.46,78.57,201.79,77,201.79,74.39Z"/><path class="cls-7" d="M209.6,67.94a1.17,1.17,0,0,1,2.32,0,1.16,1.16,0,0,1-2.32,0Zm.22,2.46h1.87v8h-1.87Z"/><path class="cls-7" d="M214.07,70.4h1.54l.14.85h.05a3.85,3.85,0,0,1,2.4-1c2,0,3.14,1.6,3.14,4.06,0,2.73-1.63,4.31-3.4,4.31a3.15,3.15,0,0,1-2.05-.88l.05,1.33v2.51h-1.87Zm5.35,3.88c0-1.59-.52-2.53-1.74-2.53a2.53,2.53,0,0,0-1.74.9v3.71a2.49,2.49,0,0,0,1.6.66C218.61,77,219.42,76.09,219.42,74.28Z"/><path class="cls-7" d="M222.61,76.23c0-1.71,1.42-2.6,4.69-3,0-.86-.37-1.57-1.45-1.57a4.4,4.4,0,0,0-2.24.79l-.69-1.25a6.25,6.25,0,0,1,3.27-1c2,0,3,1.23,3,3.45v4.72h-1.53l-.15-.88h-.05A3.84,3.84,0,0,1,225,78.57,2.24,2.24,0,0,1,222.61,76.23Zm4.69,0v-1.8c-2.16.28-2.88.84-2.88,1.65s.48,1,1.14,1A2.54,2.54,0,0,0,227.3,76.24Z"/><path class="cls-7" d="M231.44,75.69v-3.8H230.3V70.48l1.23-.08.23-2.18h1.55V70.4h2v1.49h-2v3.79c0,.94.36,1.4,1.13,1.4a2.57,2.57,0,0,0,.83-.18l.32,1.38a5.29,5.29,0,0,1-1.63.29C232.12,78.57,231.44,77.41,231.44,75.69Z"/><path class="cls-7" d="M236.81,67.94a1.16,1.16,0,0,1,2.31,0,1.16,1.16,0,0,1-2.31,0ZM237,70.4h1.87v8H237Z"/><path class="cls-7" d="M240.52,70.48l1.17-.08H245v1.49h-4.5Zm1.07-.91c0-1.65.76-2.86,2.65-2.86a4.16,4.16,0,0,1,1.46.28l-.36,1.4a2.13,2.13,0,0,0-.86-.19c-.67,0-1,.42-1,1.34v8.83h-1.87Z"/><path class="cls-7" d="M245.07,80.3a2.21,2.21,0,0,0,1.64-2l-.09-1.4.72,1.16a1.08,1.08,0,0,1-.77.28,1.13,1.13,0,0,1-1.21-1.14A1.16,1.16,0,0,1,246.61,76c.89,0,1.39.72,1.39,1.92a3.46,3.46,0,0,1-2.52,3.37Z"/><path class="cls-7" d="M168.27,93.88A3.89,3.89,0,0,1,172,89.69c2.16,0,3.29,1.56,3.29,3.79a5.19,5.19,0,0,1-.08.91H170.1a2.26,2.26,0,0,0,2.35,2.22A3.43,3.43,0,0,0,174.3,96l.64,1.16a5,5,0,0,1-2.74.87A3.86,3.86,0,0,1,168.27,93.88Zm5.35-.77c0-1.22-.54-2-1.63-2a2,2,0,0,0-1.91,2Z"/><path class="cls-7" d="M177,89.89h1.54l.14,1.07h0a3.74,3.74,0,0,1,2.62-1.27c1.71,0,2.45,1.16,2.45,3.17v5H182V93.1c0-1.31-.38-1.81-1.24-1.81a2.53,2.53,0,0,0-1.82,1v5.57H177Z"/><path class="cls-7" d="M185.58,99.31a2,2,0,0,1,1.15-1.7v-.07a1.5,1.5,0,0,1-.72-1.33,1.94,1.94,0,0,1,.88-1.49v-.06a2.66,2.66,0,0,1-1-2.11A2.9,2.9,0,0,1,189,89.69a3.46,3.46,0,0,1,1.18.2H193v1.39h-1.45a2.06,2.06,0,0,1,.45,1.33c0,1.78-1.34,2.72-3,2.72a3,3,0,0,1-1.08-.21.93.93,0,0,0-.39.77c0,.44.33.72,1.3.72h1.41c1.91,0,2.92.59,2.92,2,0,1.58-1.65,2.82-4.25,2.82C187,101.39,185.58,100.7,185.58,99.31Zm5.77-.43c0-.62-.5-.8-1.41-.8h-1.09a4.27,4.27,0,0,1-1.08-.11,1.33,1.33,0,0,0-.62,1c0,.73.78,1.15,2,1.15S191.35,99.57,191.35,98.88Zm-1-6.33a1.39,1.39,0,1,0-2.76,0,1.4,1.4,0,1,0,2.76,0Z"/><path class="cls-7" d="M193.85,95.72c0-1.71,1.42-2.6,4.69-3,0-.86-.37-1.57-1.45-1.57a4.38,4.38,0,0,0-2.24.78l-.69-1.24a6.17,6.17,0,0,1,3.27-1c2,0,3,1.23,3,3.45v4.72h-1.53l-.15-.88h0a3.84,3.84,0,0,1-2.47,1.08A2.24,2.24,0,0,1,193.85,95.72Zm4.69,0V93.93c-2.16.27-2.88.84-2.88,1.64s.48,1,1.15,1A2.52,2.52,0,0,0,198.54,95.72Z"/><path class="cls-7" d="M202.11,99.31a2,2,0,0,1,1.15-1.7v-.07a1.5,1.5,0,0,1-.72-1.33,1.94,1.94,0,0,1,.88-1.49v-.06a2.66,2.66,0,0,1-1-2.11,2.9,2.9,0,0,1,3.15-2.86,3.46,3.46,0,0,1,1.18.2h2.86v1.39H208.1a2.07,2.07,0,0,1,.46,1.33c0,1.78-1.35,2.72-3,2.72a3,3,0,0,1-1.08-.21.93.93,0,0,0-.39.77c0,.44.33.72,1.3.72h1.42c1.9,0,2.91.59,2.91,2,0,1.58-1.64,2.82-4.25,2.82C203.53,101.39,202.11,100.7,202.11,99.31Zm5.77-.43c0-.62-.49-.8-1.41-.8h-1.09A4.27,4.27,0,0,1,204.3,98a1.33,1.33,0,0,0-.62,1c0,.73.78,1.15,2,1.15S207.88,99.57,207.88,98.88Zm-1-6.33a1.4,1.4,0,1,0-2.77,0,1.4,1.4,0,1,0,2.77,0Z"/><path class="cls-7" d="M210.32,93.88A3.88,3.88,0,0,1,214,89.69c2.16,0,3.3,1.56,3.3,3.79a4.27,4.27,0,0,1-.09.91h-5.06a2.28,2.28,0,0,0,2.35,2.22,3.4,3.4,0,0,0,1.85-.58l.64,1.16a5,5,0,0,1-2.73.87A3.85,3.85,0,0,1,210.32,93.88Zm5.35-.77c0-1.22-.55-2-1.64-2a2,2,0,0,0-1.91,2Z"/><path class="cls-7" d="M219.08,89.89h1.53l.14,1.08h.05a3.46,3.46,0,0,1,2.45-1.28,2.14,2.14,0,0,1,2.2,1.43A3.64,3.64,0,0,1,228,89.69c1.68,0,2.46,1.16,2.46,3.17v5h-1.87V93.1c0-1.31-.39-1.81-1.23-1.81a2.49,2.49,0,0,0-1.67,1v5.57h-1.87V93.1c0-1.31-.39-1.81-1.23-1.81a2.47,2.47,0,0,0-1.66,1v5.57h-1.87Z"/><path class="cls-7" d="M232.24,93.88a3.88,3.88,0,0,1,3.67-4.19c2.16,0,3.3,1.56,3.3,3.79a5.19,5.19,0,0,1-.08.91h-5.07a2.28,2.28,0,0,0,2.35,2.22,3.46,3.46,0,0,0,1.86-.58l.63,1.16a5,5,0,0,1-2.73.87A3.86,3.86,0,0,1,232.24,93.88Zm5.35-.77c0-1.22-.55-2-1.64-2a2,2,0,0,0-1.91,2Z"/><path class="cls-7" d="M241,89.89h1.53l.14,1.07h.06a3.72,3.72,0,0,1,2.61-1.27c1.71,0,2.46,1.16,2.46,3.17v5h-1.87V93.1c0-1.31-.38-1.81-1.24-1.81a2.51,2.51,0,0,0-1.82,1v5.57H241Z"/><path class="cls-7" d="M250.37,95.17v-3.8h-1.14V90l1.24-.08.22-2.18h1.55v2.18h2v1.48h-2v3.8c0,.94.37,1.4,1.13,1.4a2.51,2.51,0,0,0,.83-.18l.32,1.37a4.94,4.94,0,0,1-1.63.3C251.05,98.06,250.37,96.89,250.37,95.17Z"/><path class="cls-7" d="M32.63,122.75H39v1.58h-4.5v2.72h3.81v1.59H34.52v3.14h4.66v1.58H32.63Z"/><path class="cls-7" d="M40.66,134.81a2,2,0,0,1,1.15-1.7v-.06a1.52,1.52,0,0,1-.72-1.34,1.92,1.92,0,0,1,.88-1.48v-.07a2.66,2.66,0,0,1-1-2.1,2.91,2.91,0,0,1,3.15-2.87,3.46,3.46,0,0,1,1.18.2H48.1v1.39H46.65a2.09,2.09,0,0,1,.45,1.34c0,1.77-1.34,2.72-3,2.72a3,3,0,0,1-1.08-.21.9.9,0,0,0-.39.76c0,.45.33.72,1.29.72h1.42c1.91,0,2.92.59,2.92,2,0,1.57-1.65,2.81-4.25,2.81C42.08,136.89,40.66,136.21,40.66,134.81Zm5.77-.43c0-.61-.5-.8-1.41-.8H43.93a4.22,4.22,0,0,1-1.08-.11,1.34,1.34,0,0,0-.62,1.06c0,.72.78,1.15,2,1.15S46.43,135.07,46.43,134.38Zm-1-6.32a1.39,1.39,0,1,0-2.76,0,1.4,1.4,0,1,0,2.76,0Z"/><path class="cls-7" d="M48.93,131.22c0-1.71,1.42-2.6,4.69-2.95,0-.85-.37-1.57-1.45-1.57a4.4,4.4,0,0,0-2.24.79l-.69-1.25a6.25,6.25,0,0,1,3.27-1c2,0,3,1.23,3,3.45v4.72H54l-.15-.88h-.05a3.84,3.84,0,0,1-2.47,1.08A2.24,2.24,0,0,1,48.93,131.22Zm4.69,0v-1.8c-2.16.28-2.88.84-2.88,1.65s.48,1,1.14,1A2.54,2.54,0,0,0,53.62,131.23Z"/><path class="cls-7" d="M57.74,131.31V121.9h1.87v9.51c0,.46.21.62.4.62a1.13,1.13,0,0,0,.29,0l.24,1.4a2.67,2.67,0,0,1-1,.16C58.22,133.56,57.74,132.7,57.74,131.31Z"/><path class="cls-7" d="M61.92,122.93a1.17,1.17,0,0,1,2.32,0,1.16,1.16,0,0,1-2.32,0Zm.22,2.46H64v8H62.14Z"/><path class="cls-7" d="M66.67,130.68v-3.8H65.54v-1.41l1.23-.08.22-2.18h1.55v2.18h2v1.49h-2v3.79c0,.94.37,1.4,1.13,1.4a2.46,2.46,0,0,0,.83-.18l.32,1.38a5.23,5.23,0,0,1-1.63.29C67.35,133.56,66.67,132.4,66.67,130.68Z"/><path class="cls-7" d="M71.47,129.38a3.88,3.88,0,0,1,3.67-4.19c2.16,0,3.3,1.56,3.3,3.79a5.09,5.09,0,0,1-.08.91H73.29a2.27,2.27,0,0,0,2.35,2.22,3.38,3.38,0,0,0,1.86-.58l.63,1.16a4.89,4.89,0,0,1-2.73.87A3.86,3.86,0,0,1,71.47,129.38Zm5.35-.76c0-1.23-.54-2-1.64-2a2,2,0,0,0-1.91,2Zm-2.64-5.48,2.4-2.83,1.29,1.24-2.75,2.51Z"/><path class="cls-7" d="M32.47,144.88H34l.14.85h.06a3.83,3.83,0,0,1,2.4-1c2,0,3.14,1.6,3.14,4.06,0,2.73-1.63,4.31-3.41,4.31a3.19,3.19,0,0,1-2-.88l.06,1.32V156H32.47Zm5.34,3.88c0-1.59-.52-2.53-1.73-2.53a2.53,2.53,0,0,0-1.74.89v3.72a2.53,2.53,0,0,0,1.6.66C37,151.5,37.81,150.56,37.81,148.76Z"/><path class="cls-7" d="M41.63,144.88h1.53l.14,1.42h.06a2.71,2.71,0,0,1,2.26-1.62,2,2,0,0,1,.9.16l-.32,1.63a2.66,2.66,0,0,0-.82-.13c-.63,0-1.4.43-1.88,1.65v4.86H41.63Z"/><path class="cls-7" d="M47,148.87a3.81,3.81,0,1,1,3.79,4.18A3.86,3.86,0,0,1,47,148.87Zm5.66,0c0-1.6-.7-2.66-1.87-2.66s-1.87,1.06-1.87,2.66.7,2.65,1.87,2.65S52.66,150.47,52.66,148.87Z"/><path class="cls-7" d="M55.62,145l1.17-.08h3.33v1.48h-4.5Zm1.07-.91c0-1.65.76-2.86,2.64-2.86a4,4,0,0,1,1.47.28l-.36,1.39a2.31,2.31,0,0,0-.86-.19c-.67,0-1,.42-1,1.35v8.83H56.69Z"/><path class="cls-7" d="M60.83,148.87a3.89,3.89,0,0,1,3.68-4.19c2.15,0,3.29,1.56,3.29,3.79a5.19,5.19,0,0,1-.08.91H62.66A2.26,2.26,0,0,0,65,151.6a3.45,3.45,0,0,0,1.85-.58l.64,1.16a4.93,4.93,0,0,1-2.74.87A3.86,3.86,0,0,1,60.83,148.87Zm5.35-.77c0-1.22-.54-2-1.63-2a2,2,0,0,0-1.91,2Z"/><path class="cls-7" d="M68.8,151.94l.87-1.19a3.53,3.53,0,0,0,2.2.89c.87,0,1.28-.41,1.28-1s-.86-1-1.71-1.29c-1-.39-2.24-1-2.24-2.33s1.11-2.38,2.9-2.38a4.26,4.26,0,0,1,2.65,1l-.86,1.15a3,3,0,0,0-1.75-.7c-.8,0-1.18.38-1.18.88s.81.87,1.67,1.19c1.08.4,2.29.92,2.29,2.41s-1.09,2.48-3.1,2.48A5,5,0,0,1,68.8,151.94Z"/><path class="cls-7" d="M75.8,151.94l.87-1.19a3.53,3.53,0,0,0,2.2.89c.87,0,1.28-.41,1.28-1s-.86-1-1.71-1.29c-1-.39-2.24-1-2.24-2.33s1.11-2.38,2.9-2.38a4.26,4.26,0,0,1,2.65,1l-.86,1.15a3,3,0,0,0-1.75-.7c-.8,0-1.18.38-1.18.88s.81.87,1.67,1.19c1.08.4,2.29.92,2.29,2.41s-1.09,2.48-3.1,2.48A5,5,0,0,1,75.8,151.94Z"/><path class="cls-7" d="M83.38,142.42a1.16,1.16,0,0,1,2.31,0,1.16,1.16,0,0,1-2.31,0Zm.21,2.46h1.87v8H83.59Z"/><path class="cls-7" d="M87.32,148.87a3.81,3.81,0,1,1,3.79,4.18A3.86,3.86,0,0,1,87.32,148.87Zm5.66,0c0-1.6-.7-2.66-1.87-2.66s-1.87,1.06-1.87,2.66.7,2.65,1.87,2.65S93,150.47,93,148.87Z"/><path class="cls-7" d="M96.76,144.88h1.53l.15,1.07h0a3.72,3.72,0,0,1,2.61-1.27c1.71,0,2.46,1.16,2.46,3.17v5h-1.87v-4.76c0-1.31-.38-1.8-1.24-1.8a2.51,2.51,0,0,0-1.82,1v5.57H96.76Z"/><path class="cls-7" d="M105.85,144.88h1.54l.14,1.07h0a3.76,3.76,0,0,1,2.62-1.27c1.71,0,2.45,1.16,2.45,3.17v5h-1.87v-4.76c0-1.31-.37-1.8-1.24-1.8a2.51,2.51,0,0,0-1.82,1v5.57h-1.87Z"/><path class="cls-7" d="M114.42,148.87a3.89,3.89,0,0,1,3.68-4.19c2.15,0,3.29,1.56,3.29,3.79a5.19,5.19,0,0,1-.08.91h-5.06a2.26,2.26,0,0,0,2.35,2.22,3.45,3.45,0,0,0,1.85-.58l.63,1.16a4.87,4.87,0,0,1-2.73.87A3.86,3.86,0,0,1,114.42,148.87Zm5.35-.77c0-1.22-.54-2-1.63-2a2,2,0,0,0-1.91,2Z"/><path class="cls-7" d="M123.18,150.8v-9.42h1.87v9.52c0,.46.21.62.4.62a1.24,1.24,0,0,0,.3,0l.23,1.39a2.63,2.63,0,0,1-1,.17C123.67,153.05,123.18,152.19,123.18,150.8Z"/><path class="cls-7" d="M127.58,150.8v-9.42h1.87v9.52c0,.46.21.62.4.62a1.24,1.24,0,0,0,.3,0l.23,1.39a2.63,2.63,0,0,1-1,.17C128.07,153.05,127.58,152.19,127.58,150.8Z"/><path class="cls-7" d="M131.46,148.87a3.88,3.88,0,0,1,3.67-4.19c2.16,0,3.3,1.56,3.3,3.79a4.27,4.27,0,0,1-.09.91h-5.06a2.28,2.28,0,0,0,2.35,2.22,3.43,3.43,0,0,0,1.85-.58l.64,1.16a4.89,4.89,0,0,1-2.73.87A3.85,3.85,0,0,1,131.46,148.87Zm5.35-.77c0-1.22-.55-2-1.64-2a2,2,0,0,0-1.91,2Z"/><path class="cls-7" d="M32.47,164.36H34l.14.85h.06a3.87,3.87,0,0,1,2.4-1c2,0,3.14,1.6,3.14,4.06,0,2.72-1.63,4.3-3.41,4.3a3.23,3.23,0,0,1-2-.87l.06,1.32v2.51H32.47Zm5.34,3.89c0-1.59-.52-2.54-1.73-2.54a2.55,2.55,0,0,0-1.74.9v3.71a2.49,2.49,0,0,0,1.6.67C37,171,37.81,170.05,37.81,168.25Z"/><path class="cls-7" d="M41.1,168.36a3.81,3.81,0,1,1,3.79,4.17A3.86,3.86,0,0,1,41.1,168.36Zm5.67,0c0-1.6-.71-2.67-1.88-2.67S43,166.76,43,168.36s.71,2.65,1.87,2.65S46.77,170,46.77,168.36Z"/><path class="cls-7" d="M50.45,169.36v-5h1.87v4.76c0,1.32.38,1.81,1.24,1.81s1.17-.33,1.77-1.11v-5.46H57.2v8H55.67l-.15-1.18h-.05a3.24,3.24,0,0,1-2.56,1.37C51.2,172.53,50.45,171.38,50.45,169.36Z"/><path class="cls-7" d="M59.57,164.36h1.54l.14,1.43h0a2.72,2.72,0,0,1,2.27-1.62,2,2,0,0,1,.9.16L64.14,166a2.86,2.86,0,0,0-.81-.13c-.64,0-1.41.44-1.89,1.65v4.87H59.57Z"/><path class="cls-7" d="M69.16,169.65v-3.8H68v-1.4l1.23-.09.23-2.17H71v2.17h2v1.49H71v3.8c0,.93.36,1.4,1.13,1.4a2.58,2.58,0,0,0,.83-.19l.32,1.38a5.29,5.29,0,0,1-1.63.29C69.84,172.53,69.16,171.37,69.16,169.65Z"/><path class="cls-7" d="M74,168.36a3.81,3.81,0,1,1,3.8,4.17A3.87,3.87,0,0,1,74,168.36Zm5.67,0c0-1.6-.7-2.67-1.87-2.67s-1.87,1.07-1.87,2.67.7,2.65,1.87,2.65S79.62,170,79.62,168.36Z"/><path class="cls-7" d="M83.3,169.36v-5h1.87v4.76c0,1.32.38,1.81,1.24,1.81s1.17-.33,1.77-1.11v-5.46h1.87v8H88.52l-.14-1.18h-.06a3.24,3.24,0,0,1-2.56,1.37C84.05,172.53,83.3,171.38,83.3,169.36Z"/><path class="cls-7" d="M91.63,171.42l.87-1.19a3.49,3.49,0,0,0,2.2.89c.87,0,1.28-.41,1.28-1s-.86-1-1.71-1.29c-1-.4-2.24-1-2.24-2.33s1.12-2.38,2.9-2.38a4.32,4.32,0,0,1,2.65,1l-.86,1.15a2.94,2.94,0,0,0-1.74-.69c-.81,0-1.19.38-1.19.88s.81.87,1.67,1.19c1.08.4,2.29.92,2.29,2.41s-1.08,2.47-3.1,2.47A5,5,0,0,1,91.63,171.42Z"/><path class="cls-7" d="M299.19,121.08h3.58c2.21,0,3.91.77,3.91,3.14s-1.7,3.32-3.91,3.32h-1.69v4.15h-1.89Zm3.39,5c1.45,0,2.25-.61,2.25-1.82s-.8-1.64-2.25-1.64h-1.5V126Zm-.16,1,1.36-1.12,3.32,5.77H305Z"/><path class="cls-7" d="M308,127.71a3.88,3.88,0,0,1,3.67-4.19c2.16,0,3.3,1.56,3.3,3.79a5.09,5.09,0,0,1-.08.91h-5.07a2.28,2.28,0,0,0,2.35,2.22,3.32,3.32,0,0,0,1.85-.58l.64,1.16a4.89,4.89,0,0,1-2.73.87A3.85,3.85,0,0,1,308,127.71Zm5.35-.76c0-1.23-.55-2-1.64-2a2,2,0,0,0-1.91,2Z"/><path class="cls-7" d="M316.72,129.64v-9.42h1.87v9.52c0,.46.21.62.4.62a1.17,1.17,0,0,0,.29,0l.24,1.4a2.67,2.67,0,0,1-1,.16C317.2,131.89,316.72,131,316.72,129.64Z"/><path class="cls-7" d="M320.69,129.55c0-1.71,1.41-2.6,4.69-3,0-.86-.37-1.57-1.45-1.57a4.4,4.4,0,0,0-2.24.79l-.69-1.25a6.25,6.25,0,0,1,3.27-1c2,0,3,1.23,3,3.45v4.72h-1.53l-.15-.88h-.05a3.84,3.84,0,0,1-2.47,1.08A2.24,2.24,0,0,1,320.69,129.55Zm4.69,0v-1.8c-2.16.28-2.89.84-2.89,1.65s.49,1,1.15,1A2.54,2.54,0,0,0,325.38,129.56Z"/><path class="cls-7" d="M329.52,129v-3.79h-1.14V123.8l1.23-.08.23-2.18h1.55v2.18h2v1.49h-2V129c0,.94.36,1.4,1.13,1.4a2.57,2.57,0,0,0,.83-.18l.32,1.38a5.29,5.29,0,0,1-1.63.29C330.2,131.89,329.52,130.73,329.52,129Z"/><path class="cls-7" d="M334.89,121.26a1.16,1.16,0,0,1,2.31,0,1.16,1.16,0,0,1-2.31,0Zm.21,2.46H337v8H335.1Z"/><path class="cls-7" d="M338.83,127.71a3.81,3.81,0,1,1,3.79,4.18A3.86,3.86,0,0,1,338.83,127.71Zm5.66,0c0-1.6-.7-2.66-1.87-2.66s-1.87,1.06-1.87,2.66.7,2.65,1.87,2.65S344.49,129.31,344.49,127.71Z"/><path class="cls-7" d="M348.27,123.72h1.53l.15,1.08H350a3.69,3.69,0,0,1,2.61-1.28c1.71,0,2.46,1.16,2.46,3.17v5H353.2v-4.76c0-1.31-.38-1.8-1.24-1.8a2.51,2.51,0,0,0-1.82,1v5.57h-1.87Z"/><path class="cls-7" d="M356.57,130.78l.87-1.19a3.53,3.53,0,0,0,2.2.89c.87,0,1.28-.41,1.28-1s-.86-1-1.71-1.29c-1-.39-2.24-1-2.24-2.32s1.11-2.39,2.9-2.39a4.26,4.26,0,0,1,2.65,1l-.86,1.15a3,3,0,0,0-1.74-.7c-.81,0-1.19.39-1.19.89s.81.87,1.67,1.18c1.08.41,2.29.93,2.29,2.41s-1.09,2.48-3.1,2.48A5,5,0,0,1,356.57,130.78Z"/><path class="cls-7" d="M367.18,129.55c0-1.71,1.42-2.6,4.69-3,0-.86-.37-1.57-1.45-1.57a4.4,4.4,0,0,0-2.24.79l-.69-1.25a6.26,6.26,0,0,1,3.28-1c2,0,3,1.23,3,3.45v4.72h-1.53l-.14-.88H372a3.84,3.84,0,0,1-2.47,1.08A2.24,2.24,0,0,1,367.18,129.55Zm4.69,0v-1.8c-2.16.28-2.88.84-2.88,1.65s.48,1,1.15,1A2.52,2.52,0,0,0,371.87,129.56Z"/><path class="cls-7" d="M375.9,128.72v-5h1.87v4.76c0,1.31.38,1.8,1.24,1.8.7,0,1.16-.32,1.77-1.1v-5.46h1.87v8h-1.54l-.14-1.17h-.05a3.26,3.26,0,0,1-2.57,1.37C376.65,131.89,375.9,130.73,375.9,128.72Z"/><path class="cls-7" d="M299.31,148.49v-3.8h-1.13v-1.4l1.23-.08.22-2.18h1.55v2.18h2v1.48h-2v3.8c0,.94.37,1.4,1.13,1.4a2.46,2.46,0,0,0,.83-.18l.32,1.37a4.94,4.94,0,0,1-1.63.3C300,151.38,299.31,150.21,299.31,148.49Z"/><path class="cls-7" d="M304.89,143.21h1.54l.14,1.42h.05a2.72,2.72,0,0,1,2.27-1.62,2,2,0,0,1,.9.16l-.32,1.63a2.66,2.66,0,0,0-.82-.13c-.64,0-1.4.43-1.88,1.65v4.86h-1.88Z"/><path class="cls-7" d="M310.1,149c0-1.71,1.42-2.6,4.69-2.95,0-.86-.37-1.57-1.45-1.57a4.38,4.38,0,0,0-2.24.78l-.69-1.24a6.17,6.17,0,0,1,3.28-1.05c2,0,3,1.23,3,3.45v4.72h-1.53l-.15-.88h-.05a3.84,3.84,0,0,1-2.47,1.08A2.24,2.24,0,0,1,310.1,149Zm4.69,0v-1.79c-2.16.27-2.88.84-2.88,1.64s.48,1,1.15,1A2.5,2.5,0,0,0,314.79,149Z"/><path class="cls-7" d="M317.92,143.21h1.89l1.27,4.13.67,2.41h.07l.67-2.41,1.27-4.13h1.81l-2.71,8H320.7Z"/><path class="cls-7" d="M326.19,149c0-1.71,1.42-2.6,4.69-2.95,0-.86-.37-1.57-1.45-1.57a4.42,4.42,0,0,0-2.24.78l-.68-1.24a6.11,6.11,0,0,1,3.27-1.05c2,0,3,1.23,3,3.45v4.72h-1.53l-.14-.88H331a3.89,3.89,0,0,1-2.48,1.08A2.24,2.24,0,0,1,326.19,149Zm4.69,0v-1.79c-2.16.27-2.88.84-2.88,1.64s.48,1,1.15,1A2.5,2.5,0,0,0,330.88,149Z"/><path class="cls-7" d="M334.79,140.75a1.16,1.16,0,1,1,1.15,1.06A1.07,1.07,0,0,1,334.79,140.75Zm.21,2.46h1.87v8H335Z"/><path class="cls-7" d="M339.26,149.13v-9.42h1.87v9.52c0,.46.21.62.4.62a1.17,1.17,0,0,0,.29,0l.24,1.39a2.63,2.63,0,0,1-1,.17C339.74,151.38,339.26,150.52,339.26,149.13Z"/><path class="cls-7" d="M343.23,153.11a2.22,2.22,0,0,0,1.65-2l-.1-1.41.72,1.16a1,1,0,0,1-.77.29,1.13,1.13,0,0,1-1.21-1.15,1.17,1.17,0,0,1,1.25-1.15c.89,0,1.39.72,1.39,1.92a3.47,3.47,0,0,1-2.52,3.38Z"/><path class="cls-7" d="M298.51,166.69a3.94,3.94,0,0,1,4-4.19,3.44,3.44,0,0,1,2.33.89l-.91,1.22a2,2,0,0,0-1.33-.59c-1.28,0-2.17,1.07-2.17,2.67s.88,2.65,2.12,2.65a2.66,2.66,0,0,0,1.65-.69l.76,1.23a4,4,0,0,1-2.61,1C300.18,170.86,298.51,169.33,298.51,166.69Z"/><path class="cls-7" d="M306.53,168.61V159.2h1.87v9.51c0,.46.21.63.41.63a.89.89,0,0,0,.29,0l.23,1.4a2.61,2.61,0,0,1-1,.16C307,170.86,306.53,170,306.53,168.61Z"/><path class="cls-7" d="M310.72,160.24a1.16,1.16,0,1,1,1.16,1.06A1.09,1.09,0,0,1,310.72,160.24Zm.22,2.45h1.87v8h-1.87Z"/><path class="cls-7" d="M315.19,162.69h1.53l.15,1.09h.05a3.44,3.44,0,0,1,2.45-1.28,2.15,2.15,0,0,1,2.2,1.43,3.57,3.57,0,0,1,2.56-1.43c1.68,0,2.46,1.15,2.46,3.17v5h-1.87v-4.76c0-1.32-.39-1.81-1.22-1.81a2.45,2.45,0,0,0-1.67,1v5.57H320v-4.76c0-1.32-.39-1.81-1.23-1.81a2.51,2.51,0,0,0-1.67,1v5.57h-1.87Z"/><path class="cls-7" d="M328.45,168.52c0-1.7,1.42-2.59,4.69-2.94,0-.86-.37-1.58-1.45-1.58a4.4,4.4,0,0,0-2.24.79l-.69-1.25a6.25,6.25,0,0,1,3.28-1c2,0,3,1.22,3,3.45v4.72h-1.53l-.14-.89h-.06a3.84,3.84,0,0,1-2.47,1.08A2.24,2.24,0,0,1,328.45,168.52Zm4.69,0v-1.79c-2.16.27-2.88.84-2.88,1.64s.48,1,1.15,1A2.48,2.48,0,0,0,333.14,168.53Z"/><path class="cls-7" d="M337.28,168v-3.8h-1.14v-1.4l1.24-.09.22-2.17h1.55v2.17h2v1.49h-2V168c0,.93.36,1.39,1.13,1.39a2.51,2.51,0,0,0,.83-.18l.32,1.38a5.29,5.29,0,0,1-1.63.29C338,170.86,337.28,169.7,337.28,168Z"/><path class="cls-7" d="M345.32,169.75l.87-1.19a3.53,3.53,0,0,0,2.2.89c.87,0,1.28-.41,1.28-.95s-.86-1-1.72-1.29c-1-.4-2.24-1-2.24-2.33s1.12-2.38,2.91-2.38a4.32,4.32,0,0,1,2.65.95l-.86,1.15a3,3,0,0,0-1.75-.69c-.8,0-1.18.38-1.18.88s.81.87,1.67,1.19c1.08.4,2.28.92,2.28,2.41s-1.08,2.47-3.09,2.47A5,5,0,0,1,345.32,169.75Z"/><path class="cls-7" d="M352.58,166.69a3.81,3.81,0,1,1,3.8,4.17A3.87,3.87,0,0,1,352.58,166.69Zm5.67,0c0-1.6-.71-2.67-1.87-2.67s-1.87,1.07-1.87,2.67.7,2.65,1.87,2.65S358.25,168.28,358.25,166.69Z"/><path class="cls-7" d="M361.5,166.69a3.94,3.94,0,0,1,4-4.19,3.44,3.44,0,0,1,2.33.89l-.91,1.22a2,2,0,0,0-1.32-.59c-1.29,0-2.18,1.07-2.18,2.67s.88,2.65,2.12,2.65a2.66,2.66,0,0,0,1.65-.69l.76,1.23a4,4,0,0,1-2.61,1C363.17,170.86,361.5,169.33,361.5,166.69Z"/><path class="cls-7" d="M369.31,160.24a1.16,1.16,0,1,1,1.16,1.06A1.09,1.09,0,0,1,369.31,160.24Zm.22,2.45h1.87v8h-1.87Z"/><path class="cls-7" d="M373.35,168.52c0-1.7,1.42-2.59,4.69-2.94,0-.86-.37-1.58-1.45-1.58a4.4,4.4,0,0,0-2.24.79l-.69-1.25a6.25,6.25,0,0,1,3.28-1c2,0,3,1.22,3,3.45v4.72h-1.53l-.14-.89h-.06a3.84,3.84,0,0,1-2.47,1.08A2.24,2.24,0,0,1,373.35,168.52Zm4.69,0v-1.79c-2.16.27-2.88.84-2.88,1.64s.48,1,1.15,1A2.48,2.48,0,0,0,378,168.53Z"/><path class="cls-7" d="M382.16,168.61V159.2H384v9.51c0,.46.21.63.4.63a.94.94,0,0,0,.3,0l.23,1.4a2.67,2.67,0,0,1-1,.16C382.65,170.86,382.16,170,382.16,168.61Z"/><path class="cls-7" d="M35,278.32c0-3.47,2.17-5.54,4.86-5.54A4.22,4.22,0,0,1,43,274.13l-1,1.21a2.74,2.74,0,0,0-2-.92c-1.73,0-3,1.46-3,3.84s1.14,3.89,2.92,3.89a3,3,0,0,0,2.27-1.09l1,1.18a4.24,4.24,0,0,1-3.35,1.55C37.15,283.79,35,281.83,35,278.32Z"/><path class="cls-7" d="M44.26,279.61a3.81,3.81,0,1,1,3.79,4.18A3.86,3.86,0,0,1,44.26,279.61Zm5.66,0c0-1.59-.7-2.66-1.87-2.66s-1.87,1.07-1.87,2.66.7,2.65,1.87,2.65S49.92,281.21,49.92,279.61Z"/><path class="cls-7" d="M53.7,275.62h1.53l.15,1.09h0a3.41,3.41,0,0,1,2.45-1.29,2.16,2.16,0,0,1,2.2,1.43,3.61,3.61,0,0,1,2.56-1.43c1.69,0,2.46,1.16,2.46,3.17v5H63.23v-4.76c0-1.31-.39-1.8-1.22-1.8a2.43,2.43,0,0,0-1.67,1v5.57H58.47v-4.76c0-1.31-.39-1.8-1.23-1.8a2.49,2.49,0,0,0-1.67,1v5.57H53.7Z"/><path class="cls-7" d="M67.39,275.62h1.53l.15.85h.05a3.83,3.83,0,0,1,2.4-1.05c2,0,3.14,1.6,3.14,4.06,0,2.73-1.63,4.31-3.41,4.31a3.19,3.19,0,0,1-2-.88l.06,1.33v2.51H67.39Zm5.34,3.88c0-1.59-.51-2.53-1.73-2.53a2.51,2.51,0,0,0-1.74.9v3.71a2.47,2.47,0,0,0,1.6.66C71.92,282.24,72.73,281.31,72.73,279.5Z"/><path class="cls-7" d="M76,279.61a3.89,3.89,0,0,1,3.68-4.19c2.15,0,3.29,1.56,3.29,3.79a5.09,5.09,0,0,1-.08.91H77.85a2.26,2.26,0,0,0,2.35,2.22,3.37,3.37,0,0,0,1.85-.58l.64,1.16a4.93,4.93,0,0,1-2.74.87A3.86,3.86,0,0,1,76,279.61Zm5.35-.76c0-1.23-.54-2-1.63-2a2,2,0,0,0-1.91,2Zm-2.63-5.48,2.39-2.83,1.29,1.24-2.75,2.51Z"/><path class="cls-7" d="M84.9,280.91v-3.8H83.76V275.7l1.24-.08.22-2.18h1.55v2.18h2v1.49h-2v3.79c0,.94.36,1.4,1.13,1.4a2.51,2.51,0,0,0,.83-.18l.32,1.38a5.29,5.29,0,0,1-1.63.29C85.58,283.79,84.9,282.63,84.9,280.91Z"/><path class="cls-7" d="M89.7,279.61a3.88,3.88,0,0,1,3.67-4.19c2.16,0,3.29,1.56,3.29,3.79a4.3,4.3,0,0,1-.08.91H91.52a2.27,2.27,0,0,0,2.35,2.22,3.34,3.34,0,0,0,1.85-.58l.64,1.16a4.89,4.89,0,0,1-2.73.87A3.85,3.85,0,0,1,89.7,279.61Zm5.35-.76c0-1.23-.55-2-1.64-2a2,2,0,0,0-1.91,2Z"/><path class="cls-7" d="M98.46,275.62H100l.14,1.08h.05a3.73,3.73,0,0,1,2.62-1.28c1.71,0,2.45,1.16,2.45,3.17v5h-1.87v-4.76c0-1.31-.37-1.8-1.24-1.8a2.48,2.48,0,0,0-1.81,1v5.57H98.46Z"/><path class="cls-7" d="M107,279.61a4,4,0,0,1,4-4.19,3.36,3.36,0,0,1,2.33.9l-.9,1.22a1.94,1.94,0,0,0-1.33-.59c-1.28,0-2.17,1.07-2.17,2.66s.87,2.65,2.11,2.65a2.56,2.56,0,0,0,1.65-.69l.76,1.24a3.92,3.92,0,0,1-2.6,1C108.69,283.79,107,282.26,107,279.61Z"/><path class="cls-7" d="M114.14,279.61a3.88,3.88,0,0,1,3.67-4.19c2.16,0,3.29,1.56,3.29,3.79a4.3,4.3,0,0,1-.08.91H116a2.27,2.27,0,0,0,2.35,2.22,3.34,3.34,0,0,0,1.85-.58l.64,1.16a4.89,4.89,0,0,1-2.73.87A3.85,3.85,0,0,1,114.14,279.61Zm5.35-.76c0-1.23-.55-2-1.64-2a2,2,0,0,0-1.91,2Z"/><path class="cls-7" d="M122.1,282.68l.87-1.19a3.55,3.55,0,0,0,2.2.89c.87,0,1.28-.41,1.28-1s-.86-1-1.71-1.29c-1-.39-2.24-1-2.24-2.32s1.12-2.39,2.9-2.39a4.32,4.32,0,0,1,2.65,1l-.86,1.15a3,3,0,0,0-1.74-.7c-.8,0-1.18.39-1.18.89s.8.87,1.66,1.19c1.08.4,2.29.92,2.29,2.4s-1.08,2.48-3.1,2.48A5,5,0,0,1,122.1,282.68Z"/><path class="cls-7" d="M129.47,285.52a2.21,2.21,0,0,0,1.64-2l-.09-1.4.72,1.16a1.08,1.08,0,0,1-.77.28,1.13,1.13,0,0,1-1.21-1.14,1.15,1.15,0,0,1,1.24-1.15c.89,0,1.4.72,1.4,1.92a3.45,3.45,0,0,1-2.53,3.37Z"/><path class="cls-7" d="M35.43,295.11H37l.15.85h0a3.83,3.83,0,0,1,2.4-1c2,0,3.14,1.6,3.14,4.06,0,2.73-1.63,4.31-3.4,4.31a3.2,3.2,0,0,1-2.06-.88l.06,1.32v2.52H35.43ZM40.78,299c0-1.59-.52-2.53-1.74-2.53a2.53,2.53,0,0,0-1.74.89v3.72a2.53,2.53,0,0,0,1.6.66C40,301.73,40.78,300.79,40.78,299Z"/><path class="cls-7" d="M44,300.94c0-1.71,1.41-2.6,4.69-2.95,0-.86-.37-1.57-1.45-1.57a4.48,4.48,0,0,0-2.24.78L44.28,296a6.25,6.25,0,0,1,3.27-1c2,0,3,1.23,3,3.45v4.72H49l-.14-.88H48.8a3.87,3.87,0,0,1-2.48,1.08A2.23,2.23,0,0,1,44,300.94Zm4.69,0v-1.79c-2.17.27-2.89.84-2.89,1.64s.48,1,1.15,1A2.54,2.54,0,0,0,48.66,300.94Z"/><path class="cls-7" d="M52.77,295.11h1.54l.14,1.42h0a2.72,2.72,0,0,1,2.27-1.62,2,2,0,0,1,.9.16l-.32,1.63a2.66,2.66,0,0,0-.82-.13c-.64,0-1.4.43-1.89,1.65v4.86H52.77Z"/><path class="cls-7" d="M58.14,299.1a3.94,3.94,0,0,1,4-4.19,3.41,3.41,0,0,1,2.34.9L63.57,297a2,2,0,0,0-1.33-.58c-1.28,0-2.17,1.06-2.17,2.66s.87,2.65,2.11,2.65a2.62,2.62,0,0,0,1.65-.69l.76,1.23a3.88,3.88,0,0,1-2.6,1C59.81,303.28,58.14,301.74,58.14,299.1Z"/><path class="cls-7" d="M65.26,299.1a3.81,3.81,0,1,1,3.79,4.18A3.86,3.86,0,0,1,65.26,299.1Zm5.66,0c0-1.6-.7-2.66-1.87-2.66s-1.87,1.06-1.87,2.66.7,2.65,1.87,2.65S70.92,300.7,70.92,299.1Z"/><path class="cls-7" d="M74.61,300.11v-5h1.87v4.76c0,1.31.37,1.8,1.24,1.8.7,0,1.16-.32,1.76-1.1v-5.46h1.87v8H79.82l-.14-1.17h-.05a3.26,3.26,0,0,1-2.57,1.37C75.35,303.28,74.61,302.12,74.61,300.11Z"/><path class="cls-7" d="M83.73,295.11h1.53l.14,1.42h0a2.74,2.74,0,0,1,2.27-1.62,2,2,0,0,1,.9.16l-.32,1.63a2.66,2.66,0,0,0-.82-.13c-.64,0-1.4.43-1.88,1.65v4.86H83.73Z"/><path class="cls-7" d="M88.89,302.17l.87-1.19a3.55,3.55,0,0,0,2.21.89c.87,0,1.28-.41,1.28-1s-.87-1-1.72-1.29c-1-.39-2.24-1-2.24-2.33s1.12-2.38,2.9-2.38a4.26,4.26,0,0,1,2.65,1L94,297a3,3,0,0,0-1.75-.7c-.8,0-1.18.38-1.18.88s.8.87,1.67,1.19c1.07.4,2.28.92,2.28,2.41s-1.08,2.48-3.1,2.48A5,5,0,0,1,88.89,302.17Z"/><path class="cls-7" d="M35.43,314.59H37l.15.85h0a3.87,3.87,0,0,1,2.4-1c2,0,3.14,1.6,3.14,4.06,0,2.73-1.63,4.3-3.4,4.3a3.18,3.18,0,0,1-2.06-.87l.06,1.32v2.51H35.43Zm5.35,3.89c0-1.59-.52-2.54-1.74-2.54a2.55,2.55,0,0,0-1.74.9v3.71a2.49,2.49,0,0,0,1.6.67C40,321.22,40.78,320.28,40.78,318.48Z"/><path class="cls-7" d="M44.59,314.59h1.53l.15,1.43h0a2.72,2.72,0,0,1,2.26-1.62,2.06,2.06,0,0,1,.91.16l-.33,1.62a2.94,2.94,0,0,0-.82-.13c-.63,0-1.4.44-1.88,1.65v4.87H44.59Z"/><path class="cls-7" d="M50,318.59a3.81,3.81,0,1,1,3.79,4.17A3.86,3.86,0,0,1,50,318.59Zm5.66,0c0-1.6-.7-2.67-1.87-2.67s-1.87,1.07-1.87,2.67.7,2.65,1.87,2.65S55.62,320.18,55.62,318.59Z"/><path class="cls-7" d="M58.58,314.68l1.17-.09h3.33v1.49h-4.5Zm1.07-.91c0-1.65.76-2.86,2.65-2.86a4.18,4.18,0,0,1,1.46.27l-.36,1.4a2.27,2.27,0,0,0-.86-.19c-.67,0-1,.42-1,1.35v8.83H59.65Z"/><path class="cls-7" d="M63.79,318.59a3.89,3.89,0,0,1,3.68-4.19c2.16,0,3.29,1.56,3.29,3.78a5,5,0,0,1-.08.91H65.62A2.27,2.27,0,0,0,68,321.32a3.43,3.43,0,0,0,1.85-.58l.64,1.16a5,5,0,0,1-2.74.86A3.85,3.85,0,0,1,63.79,318.59Zm5.36-.77c0-1.23-.55-2-1.64-2a2,2,0,0,0-1.91,2Z"/><path class="cls-7" d="M71.76,321.65l.87-1.19a3.47,3.47,0,0,0,2.2.89c.87,0,1.28-.4,1.28-1s-.86-1-1.71-1.29c-1.05-.4-2.24-1-2.24-2.33s1.11-2.38,2.9-2.38a4.32,4.32,0,0,1,2.65,1l-.86,1.15a3,3,0,0,0-1.74-.69c-.81,0-1.19.38-1.19.88s.81.87,1.67,1.19c1.08.4,2.29.92,2.29,2.41s-1.09,2.47-3.1,2.47A5,5,0,0,1,71.76,321.65Z"/><path class="cls-7" d="M78.76,321.65l.87-1.19a3.47,3.47,0,0,0,2.2.89c.87,0,1.28-.4,1.28-1s-.86-1-1.71-1.29c-1.05-.4-2.24-1-2.24-2.33s1.11-2.38,2.9-2.38a4.32,4.32,0,0,1,2.65,1l-.86,1.15a3,3,0,0,0-1.74-.69c-.81,0-1.19.38-1.19.88s.81.87,1.67,1.19c1.08.4,2.29.92,2.29,2.41s-1.09,2.47-3.1,2.47A5,5,0,0,1,78.76,321.65Z"/><path class="cls-7" d="M86.34,312.14a1.16,1.16,0,1,1,1.15,1.06A1.07,1.07,0,0,1,86.34,312.14Zm.21,2.45h1.87v8H86.55Z"/><path class="cls-7" d="M90.28,318.59a3.81,3.81,0,1,1,3.79,4.17A3.86,3.86,0,0,1,90.28,318.59Zm5.66,0c0-1.6-.7-2.67-1.87-2.67S92.2,317,92.2,318.59s.7,2.65,1.87,2.65S95.94,320.18,95.94,318.59Z"/><path class="cls-7" d="M99.72,314.59h1.53l.15,1.08h0a3.74,3.74,0,0,1,2.62-1.27c1.7,0,2.45,1.15,2.45,3.17v5h-1.87v-4.76c0-1.31-.38-1.81-1.24-1.81a2.53,2.53,0,0,0-1.82,1v5.57H99.72Z"/><path class="cls-7" d="M108.82,314.59h1.53l.14,1.08h.05a3.76,3.76,0,0,1,2.62-1.27c1.71,0,2.46,1.15,2.46,3.17v5h-1.87v-4.76c0-1.31-.38-1.81-1.25-1.81a2.49,2.49,0,0,0-1.81,1v5.57h-1.87Z"/><path class="cls-7" d="M117.38,318.59a3.89,3.89,0,0,1,3.68-4.19c2.16,0,3.29,1.56,3.29,3.78a5,5,0,0,1-.08.91h-5.06a2.27,2.27,0,0,0,2.35,2.23,3.43,3.43,0,0,0,1.85-.58l.64,1.16a5,5,0,0,1-2.74.86A3.85,3.85,0,0,1,117.38,318.59Zm5.36-.77c0-1.23-.55-2-1.64-2a2,2,0,0,0-1.91,2Z"/><path class="cls-7" d="M126.14,320.52V311.1H128v9.51c0,.46.21.63.41.63a.89.89,0,0,0,.29,0l.23,1.4a2.61,2.61,0,0,1-1,.16C126.63,322.76,126.14,321.91,126.14,320.52Z"/><path class="cls-7" d="M161.71,375.67l1.09-1.29a4.19,4.19,0,0,0,2.77,1.21c1.2,0,1.85-.54,1.85-1.37s-.68-1.15-1.65-1.56l-1.45-.63a3,3,0,0,1-2.15-2.82c0-1.69,1.5-3,3.57-3a4.65,4.65,0,0,1,3.27,1.35l-1,1.2a3.37,3.37,0,0,0-2.3-.91c-1,0-1.66.47-1.66,1.24s.81,1.15,1.69,1.51l1.43.6a2.93,2.93,0,0,1,2.14,2.86c0,1.72-1.43,3.16-3.81,3.16A5.46,5.46,0,0,1,161.71,375.67Z"/><path class="cls-7" d="M170.69,374.89c0-1.71,1.42-2.6,4.69-2.95,0-.86-.37-1.57-1.45-1.57a4.4,4.4,0,0,0-2.24.79l-.68-1.25a6.2,6.2,0,0,1,3.27-1.05c2,0,3,1.23,3,3.45V377h-1.53l-.14-.88h-.06a3.84,3.84,0,0,1-2.47,1.08A2.24,2.24,0,0,1,170.69,374.89Zm4.69,0v-1.8c-2.16.28-2.88.84-2.88,1.65s.48,1,1.15,1A2.52,2.52,0,0,0,175.38,374.9Z"/><path class="cls-7" d="M179.5,369.06H181l.15,1.08h0a3.69,3.69,0,0,1,2.62-1.28c1.7,0,2.45,1.16,2.45,3.17v5h-1.87v-4.76c0-1.31-.38-1.8-1.24-1.8a2.51,2.51,0,0,0-1.82,1V377H179.5Z"/><path class="cls-7" d="M188.87,374.34v-3.79h-1.13v-1.41l1.23-.08.22-2.18h1.55v2.18h2v1.49h-2v3.79c0,.94.37,1.4,1.13,1.4a2.57,2.57,0,0,0,.84-.18l.31,1.38a5.23,5.23,0,0,1-1.63.29C189.56,377.23,188.87,376.07,188.87,374.34Z"/><path class="cls-7" d="M193.67,373.05a3.89,3.89,0,0,1,3.68-4.19c2.15,0,3.29,1.56,3.29,3.79a5.09,5.09,0,0,1-.08.91H195.5a2.26,2.26,0,0,0,2.35,2.22,3.37,3.37,0,0,0,1.85-.58l.63,1.16a4.89,4.89,0,0,1-2.73.87A3.86,3.86,0,0,1,193.67,373.05Zm5.35-.76c0-1.23-.54-2-1.63-2a2,2,0,0,0-1.91,2Zm-2.63-5.48,2.39-2.83,1.29,1.24-2.75,2.51Z"/><path class="cls-7" d="M205.25,374.89c0-1.71,1.42-2.6,4.69-2.95,0-.86-.37-1.57-1.45-1.57a4.4,4.4,0,0,0-2.24.79l-.69-1.25a6.25,6.25,0,0,1,3.27-1.05c2,0,3,1.23,3,3.45V377h-1.53l-.15-.88h0a3.84,3.84,0,0,1-2.47,1.08A2.24,2.24,0,0,1,205.25,374.89Zm4.69,0v-1.8c-2.16.28-2.88.84-2.88,1.65s.48,1,1.14,1A2.54,2.54,0,0,0,209.94,374.9Z"/><path class="cls-7" d="M214,374.06v-5h1.87v4.76c0,1.31.37,1.8,1.24,1.8.7,0,1.16-.32,1.76-1.1v-5.46h1.87v8h-1.53l-.14-1.17h0a3.26,3.26,0,0,1-2.57,1.37C214.71,377.23,214,376.07,214,374.06Z"/><path class="cls-7" d="M226.61,374.34v-3.79h-1.13v-1.41l1.23-.08.22-2.18h1.55v2.18h2v1.49h-2v3.79c0,.94.37,1.4,1.13,1.4a2.46,2.46,0,0,0,.83-.18l.32,1.38a5.23,5.23,0,0,1-1.63.29C227.3,377.23,226.61,376.07,226.61,374.34Z"/><path class="cls-7" d="M232.2,369.06h1.53l.14,1.42h0a2.74,2.74,0,0,1,2.27-1.62,2,2,0,0,1,.9.17l-.32,1.62a2.66,2.66,0,0,0-.82-.13c-.64,0-1.4.44-1.88,1.65V377H232.2Z"/><path class="cls-7" d="M237.4,374.89c0-1.71,1.42-2.6,4.69-2.95,0-.86-.37-1.57-1.45-1.57a4.4,4.4,0,0,0-2.24.79l-.68-1.25a6.2,6.2,0,0,1,3.27-1.05c2,0,3,1.23,3,3.45V377h-1.53l-.14-.88h0a3.89,3.89,0,0,1-2.48,1.08A2.24,2.24,0,0,1,237.4,374.89Zm4.69,0v-1.8c-2.16.28-2.88.84-2.88,1.65s.48,1,1.15,1A2.52,2.52,0,0,0,242.09,374.9Z"/><path class="cls-7" d="M245.22,369.06h1.89l1.27,4.14c.22.78.46,1.6.68,2.4h.06c.22-.8.46-1.62.68-2.4l1.26-4.14h1.81l-2.71,8H248Z"/><path class="cls-7" d="M253.5,374.89c0-1.71,1.41-2.6,4.68-2.95,0-.86-.37-1.57-1.44-1.57a4.37,4.37,0,0,0-2.24.79l-.69-1.25a6.2,6.2,0,0,1,3.27-1.05c2,0,3,1.23,3,3.45V377h-1.54l-.14-.88h-.05a3.87,3.87,0,0,1-2.48,1.08A2.23,2.23,0,0,1,253.5,374.89Zm4.68,0v-1.8c-2.16.28-2.88.84-2.88,1.65s.48,1,1.15,1A2.52,2.52,0,0,0,258.18,374.9Z"/><path class="cls-7" d="M262.09,366.6a1.16,1.16,0,1,1,1.16,1.06A1.07,1.07,0,0,1,262.09,366.6Zm.21,2.46h1.87v8H262.3Z"/><path class="cls-7" d="M266.56,375v-9.42h1.87v9.52c0,.46.21.62.4.62a1.13,1.13,0,0,0,.29,0l.24,1.4a2.67,2.67,0,0,1-1,.16C267.05,377.23,266.56,376.37,266.56,375Z"/><path class="cls-7" d="M304.05,288c0-3.48,2.18-5.54,4.86-5.54a4.26,4.26,0,0,1,3.06,1.34L311,285a2.78,2.78,0,0,0-2-.92c-1.72,0-3,1.46-3,3.84s1.15,3.89,2.93,3.89a3,3,0,0,0,2.26-1.09l1,1.18a4.24,4.24,0,0,1-3.34,1.55C306.17,293.44,304.05,291.48,304.05,288Z"/><path class="cls-7" d="M313.27,289.26a3.81,3.81,0,1,1,3.8,4.18A3.87,3.87,0,0,1,313.27,289.26Zm5.67,0c0-1.6-.71-2.66-1.87-2.66s-1.87,1.06-1.87,2.66.7,2.65,1.87,2.65S318.94,290.86,318.94,289.26Z"/><path class="cls-7" d="M322.71,285.27h1.54l.14,1.08h.05a3.73,3.73,0,0,1,2.62-1.28c1.71,0,2.45,1.16,2.45,3.17v5h-1.87v-4.76c0-1.31-.37-1.8-1.24-1.8a2.51,2.51,0,0,0-1.82,1v5.57h-1.87Z"/><path class="cls-7" d="M332.09,290.55v-3.8H331v-1.4l1.24-.08.22-2.18H334v2.18h2v1.48h-2v3.8c0,.94.36,1.4,1.13,1.4a2.51,2.51,0,0,0,.83-.18l.32,1.37a5,5,0,0,1-1.63.3C332.77,293.44,332.09,292.27,332.09,290.55Z"/><path class="cls-7" d="M336.89,289.26a3.88,3.88,0,0,1,3.67-4.19c2.16,0,3.29,1.56,3.29,3.79a5.09,5.09,0,0,1-.08.91h-5.06a2.28,2.28,0,0,0,2.35,2.22,3.43,3.43,0,0,0,1.85-.58l.64,1.16a4.9,4.9,0,0,1-2.74.87A3.85,3.85,0,0,1,336.89,289.26Zm5.35-.76c0-1.23-.55-2-1.64-2a2,2,0,0,0-1.91,2Z"/><path class="cls-7" d="M345.64,285.27h1.54l.14,1.08h.05a3.73,3.73,0,0,1,2.62-1.28c1.71,0,2.45,1.16,2.45,3.17v5h-1.87v-4.76c0-1.31-.37-1.8-1.24-1.8a2.51,2.51,0,0,0-1.82,1v5.57h-1.87Z"/><path class="cls-7" d="M354.65,290.27v-5h1.87V290c0,1.31.37,1.8,1.24,1.8.7,0,1.16-.32,1.76-1.1v-5.46h1.87v8h-1.53l-.14-1.17h-.05a3.26,3.26,0,0,1-2.57,1.37C355.39,293.44,354.65,292.28,354.65,290.27Z"/><path class="cls-7" d="M366.53,289.26c0-2.6,1.63-4.19,3.37-4.19a3,3,0,0,1,2.1.88l-.08-1.29v-2.89h1.88v11.47h-1.54l-.14-.86h-.05a3.35,3.35,0,0,1-2.27,1.06C367.81,293.44,366.53,291.89,366.53,289.26Zm5.39,1.74v-3.72a2.32,2.32,0,0,0-1.62-.66c-1,0-1.85,1-1.85,2.62s.66,2.65,1.81,2.65A2.09,2.09,0,0,0,371.92,291Z"/><path class="cls-7" d="M376.08,290.27v-5H378V290c0,1.31.38,1.8,1.24,1.8.7,0,1.17-.32,1.77-1.1v-5.46h1.87v8H381.3l-.14-1.17h-.06a3.24,3.24,0,0,1-2.56,1.37C376.83,293.44,376.08,292.28,376.08,290.27Z"/><path class="cls-7" d="M304.73,310v-3.8h-1.14v-1.4l1.23-.09.22-2.17h1.56v2.17h2v1.49h-2V310c0,.94.36,1.4,1.13,1.4a2.34,2.34,0,0,0,.83-.19l.31,1.38a5,5,0,0,1-1.63.29C305.41,312.92,304.73,311.76,304.73,310Z"/><path class="cls-7" d="M310.31,304.75h1.53l.14,1.43H312a2.71,2.71,0,0,1,2.26-1.62,2,2,0,0,1,.9.16l-.32,1.63a2.66,2.66,0,0,0-.82-.13c-.63,0-1.4.43-1.88,1.65v4.86h-1.87Z"/><path class="cls-7" d="M315.51,310.59c0-1.71,1.42-2.6,4.69-2.95,0-.86-.37-1.57-1.45-1.57a4.42,4.42,0,0,0-2.24.78l-.68-1.24a6.11,6.11,0,0,1,3.27-1.05c2,0,3,1.23,3,3.45v4.72h-1.53l-.14-.88h0a3.88,3.88,0,0,1-2.48,1.07A2.23,2.23,0,0,1,315.51,310.59Zm4.69,0V308.8c-2.16.27-2.88.84-2.88,1.64s.48,1,1.15,1A2.5,2.5,0,0,0,320.2,310.59Z"/><path class="cls-7" d="M323.33,304.75h1.9l1.26,4.14c.22.79.46,1.61.68,2.4h.06c.22-.79.46-1.61.68-2.4l1.26-4.14H331l-2.71,8h-2.16Z"/><path class="cls-7" d="M331.61,310.59c0-1.71,1.41-2.6,4.69-2.95,0-.86-.37-1.57-1.45-1.57a4.38,4.38,0,0,0-2.24.78l-.69-1.24a6.17,6.17,0,0,1,3.27-1.05c2,0,3,1.23,3,3.45v4.72h-1.54l-.14-.88h-.05a3.83,3.83,0,0,1-2.47,1.07A2.23,2.23,0,0,1,331.61,310.59Zm4.69,0V308.8c-2.17.27-2.89.84-2.89,1.64s.48,1,1.15,1A2.52,2.52,0,0,0,336.3,310.59Z"/><path class="cls-7" d="M340.2,302.3a1.16,1.16,0,1,1,1.16,1.06A1.07,1.07,0,0,1,340.2,302.3Zm.22,2.45h1.87v8h-1.87Z"/><path class="cls-7" d="M344.67,310.68v-9.42h1.87v9.51c0,.47.21.63.4.63a1.24,1.24,0,0,0,.3,0l.23,1.39a2.67,2.67,0,0,1-1,.16C345.16,312.92,344.67,312.07,344.67,310.68Z"/></g></g></svg>